<?xml version="1.0" encoding="UTF-8" standalone="no"?>
<!DOCTYPE svg PUBLIC "-//W3C//DTD SVG 1.1//EN" "http://www.w3.org/Graphics/SVG/1.1/DTD/svg11.dtd">
<svg width="617.14" height="822.86" viewBox="0.00 0.00 3000.00 4000.00" xmlns="http://www.w3.org/2000/svg" xmlns:xlink="http://www.w3.org/1999/xlink">
<g stroke-linecap="round" id="9の2縞">
<path d="M1516.30,903.95 C1529.14,903.08 1560.14,900.98 1578.30,899.76 C1596.20,898.55 1621.26,896.85 1628.44,896.37" fill="none" stroke="rgb(0, 0, 0)" stroke-width="6.10" stroke-opacity="1.00" stroke-linejoin="round"/>
<path d="M1454.80,903.95 C1441.96,903.08 1410.95,900.98 1392.79,899.76 C1374.90,898.55 1349.83,896.85 1342.65,896.37" fill="none" stroke="rgb(0, 0, 0)" stroke-width="6.10" stroke-opacity="1.00" stroke-linejoin="round"/>
<path d="M1510.83,927.81 C1512.68,927.74 1518.06,927.57 1521.59,927.45 C1556.24,926.30 1612.88,924.43 1634.88,923.70" fill="none" stroke="rgb(0, 0, 0)" stroke-width="6.10" stroke-opacity="1.00" stroke-linejoin="round"/>
<path d="M1462.27,929.81 C1460.42,929.74 1455.03,929.57 1451.50,929.45 C1416.85,928.30 1360.21,926.43 1338.21,925.70" fill="none" stroke="rgb(0, 0, 0)" stroke-width="6.10" stroke-opacity="1.00" stroke-linejoin="round"/>
<path d="M1503.50,981.20 C1503.50,981.20 1503.33,980.81 1503.33,980.81 C1505.54,981.08 1535.72,979.12 1545.64,978.37 C1568.85,976.87 1582.26,975.45 1595.43,974.06 C1600.45,973.65 1616.95,972.69 1616.84,972.71" fill="none" stroke="rgb(0, 0, 0)" stroke-width="6.10" stroke-opacity="1.00" stroke-linejoin="round"/>
<path d="M1468.60,980.20 C1468.60,980.20 1468.76,979.81 1468.76,979.81 C1466.56,980.08 1436.38,978.12 1426.45,977.37 C1403.25,975.87 1389.83,974.45 1376.66,973.06 C1371.64,972.65 1355.14,971.69 1355.26,971.71" fill="none" stroke="rgb(0, 0, 0)" stroke-width="6.10" stroke-opacity="1.00" stroke-linejoin="round"/>
<path d="M1502.39,1003.46 C1502.39,1003.46 1502.20,1003.32 1502.20,1003.32 C1502.20,1003.32 1502.40,1002.21 1502.40,1002.21 C1508.54,1002.44 1541.17,1001.54 1548.57,1001.41 C1561.59,1001.17 1582.69,1000.29 1596.82,999.05 C1608.17,998.05 1624.70,996.75 1625.53,996.62" fill="none" stroke="rgb(0, 0, 0)" stroke-width="6.10" stroke-opacity="1.00" stroke-linejoin="round"/>
<path d="M1470.71,1005.46 C1470.71,1005.46 1470.89,1005.32 1470.89,1005.32 C1470.89,1005.32 1470.69,1004.21 1470.69,1004.21 C1464.56,1004.44 1431.93,1003.54 1424.53,1003.41 C1411.50,1003.17 1390.41,1002.29 1376.28,1001.05 C1364.92,1000.05 1348.39,998.75 1347.57,998.62" fill="none" stroke="rgb(0, 0, 0)" stroke-width="6.10" stroke-opacity="1.00" stroke-linejoin="round"/>
<path d="M1498.46,1059.54 C1511.12,1058.92 1541.74,1057.41 1559.70,1056.52 C1577.35,1055.65 1603.72,1054.35 1612.45,1053.92" fill="none" stroke="rgb(0, 0, 0)" stroke-width="6.10" stroke-opacity="1.00" stroke-linejoin="round"/>
<path d="M1472.63,1058.54 C1459.98,1057.92 1429.36,1056.41 1411.40,1055.52 C1393.74,1054.65 1367.37,1053.35 1358.65,1052.92" fill="none" stroke="rgb(0, 0, 0)" stroke-width="6.10" stroke-opacity="1.00" stroke-linejoin="round"/>
<path d="M1496.31,1083.18 C1496.31,1083.18 1495.75,1082.95 1495.75,1082.95 C1495.84,1083.01 1563.15,1083.29 1585.38,1082.10 C1592.62,1081.66 1611.10,1080.12 1614.57,1079.51 C1614.60,1079.50 1614.65,1079.50 1614.72,1079.50" fill="none" stroke="rgb(0, 0, 0)" stroke-width="6.10" stroke-opacity="1.00" stroke-linejoin="round"/>
<path d="M1475.79,1086.18 C1475.79,1086.18 1476.35,1085.95 1476.35,1085.95 C1476.26,1086.01 1408.95,1086.29 1386.72,1085.10 C1379.48,1084.66 1361.00,1083.12 1357.53,1082.51 C1357.49,1082.50 1357.44,1082.50 1357.38,1082.50" fill="none" stroke="rgb(0, 0, 0)" stroke-width="6.10" stroke-opacity="1.00" stroke-linejoin="round"/>
<path d="M1504.63,1146.96 C1505.44,1146.85 1508.28,1146.44 1510.31,1146.15 C1542.62,1141.51 1594.13,1134.12 1613.32,1131.37" fill="none" stroke="rgb(0, 0, 0)" stroke-width="6.10" stroke-opacity="1.00" stroke-linejoin="round"/>
<path d="M1467.46,1145.96 C1466.65,1145.85 1463.81,1145.44 1461.79,1145.15 C1429.47,1140.51 1377.97,1133.12 1358.78,1130.37" fill="none" stroke="rgb(0, 0, 0)" stroke-width="6.10" stroke-opacity="1.00" stroke-linejoin="round"/>
<path d="M1507.35,1171.08 C1508.43,1170.97 1512.22,1170.55 1514.92,1170.25 C1548.34,1166.57 1599.25,1160.97 1616.73,1159.04" fill="none" stroke="rgb(0, 0, 0)" stroke-width="6.10" stroke-opacity="1.00" stroke-linejoin="round"/>
<path d="M1463.75,1173.08 C1462.67,1172.97 1458.88,1172.55 1456.17,1172.25 C1422.75,1168.57 1371.85,1162.97 1354.37,1161.04" fill="none" stroke="rgb(0, 0, 0)" stroke-width="6.10" stroke-opacity="1.00" stroke-linejoin="round"/>
<path d="M1512.82,1233.28 C1513.71,1233.14 1516.83,1232.63 1519.07,1232.27 C1551.54,1227.00 1601.04,1218.96 1618.08,1216.19" fill="none" stroke="rgb(0, 0, 0)" stroke-width="6.10" stroke-opacity="1.00" stroke-linejoin="round"/>
<path d="M1459.28,1232.28 C1458.39,1232.14 1455.26,1231.63 1453.03,1231.27 C1420.56,1226.00 1371.05,1217.96 1354.02,1215.19" fill="none" stroke="rgb(0, 0, 0)" stroke-width="6.10" stroke-opacity="1.00" stroke-linejoin="round"/>
<path d="M1515.48,1256.21 C1520.41,1255.69 1534.03,1254.23 1542.73,1253.29 C1577.63,1249.56 1619.38,1245.09 1626.24,1244.35" fill="none" stroke="rgb(0, 0, 0)" stroke-width="6.10" stroke-opacity="1.00" stroke-linejoin="round"/>
<path d="M1456.62,1258.21 C1451.69,1257.69 1438.06,1256.23 1429.36,1255.29 C1394.47,1251.56 1352.72,1247.09 1345.86,1246.35" fill="none" stroke="rgb(0, 0, 0)" stroke-width="6.10" stroke-opacity="1.00" stroke-linejoin="round"/>
<path d="M1524.16,1315.88 C1525.03,1315.66 1527.62,1315.01 1529.34,1314.59 C1544.04,1311.28 1573.46,1305.82 1587.67,1303.39 C1600.86,1301.38 1621.65,1298.24 1629.24,1297.12" fill="none" stroke="rgb(0, 0, 0)" stroke-width="6.10" stroke-opacity="1.00" stroke-linejoin="round"/>
<path d="M1447.93,1314.88 C1447.07,1314.66 1444.48,1314.01 1442.75,1313.59 C1428.05,1310.28 1398.64,1304.82 1384.42,1302.39 C1371.23,1300.38 1350.45,1297.24 1342.86,1296.12" fill="none" stroke="rgb(0, 0, 0)" stroke-width="6.10" stroke-opacity="1.00" stroke-linejoin="round"/>
<path d="M1526.39,1340.27 C1535.46,1340.66 1576.29,1334.38 1622.75,1328.51 C1629.65,1327.54 1635.16,1326.42 1635.16,1326.40" fill="none" stroke="rgb(0, 0, 0)" stroke-width="6.10" stroke-opacity="1.00" stroke-linejoin="round"/>
<path d="M1443.71,1340.27 C1434.64,1340.66 1393.80,1334.38 1347.35,1328.51 C1340.44,1327.54 1334.94,1326.42 1334.93,1326.40" fill="none" stroke="rgb(0, 0, 0)" stroke-width="6.10" stroke-opacity="1.00" stroke-linejoin="round"/>
<path d="M1538.70,1400.72 C1538.70,1400.72 1538.65,1400.86 1538.65,1400.86 C1538.54,1400.95 1611.12,1381.40 1618.20,1379.87 C1626.97,1377.74 1645.11,1374.94 1645.40,1375.03" fill="none" stroke="rgb(0, 0, 0)" stroke-width="6.10" stroke-opacity="1.00" stroke-linejoin="round"/>
<path d="M1433.40,1399.72 C1433.40,1399.72 1433.44,1399.86 1433.44,1399.86 C1433.56,1399.95 1360.97,1380.40 1353.90,1378.87 C1345.12,1376.74 1326.99,1373.94 1326.69,1374.03" fill="none" stroke="rgb(0, 0, 0)" stroke-width="6.10" stroke-opacity="1.00" stroke-linejoin="round"/>
<path d="M1545.53,1423.86 C1546.47,1423.72 1549.09,1423.32 1550.77,1423.06 C1565.40,1420.62 1595.08,1414.90 1608.85,1412.08 C1624.45,1408.57 1646.48,1403.13 1653.22,1401.39" fill="none" stroke="rgb(0, 0, 0)" stroke-width="6.10" stroke-opacity="1.00" stroke-linejoin="round"/>
<path d="M1427.56,1425.86 C1426.62,1425.72 1424.01,1425.32 1422.33,1425.06 C1407.70,1422.62 1378.02,1416.90 1364.24,1414.08 C1348.65,1410.57 1326.61,1405.13 1319.87,1403.39" fill="none" stroke="rgb(0, 0, 0)" stroke-width="6.10" stroke-opacity="1.00" stroke-linejoin="round"/>
<path d="M1554.83,1473.91 C1559.83,1472.72 1573.92,1469.36 1583.01,1467.20 C1616.43,1459.25 1653.71,1450.38 1657.58,1449.46" fill="none" stroke="rgb(0, 0, 0)" stroke-width="6.10" stroke-opacity="1.00" stroke-linejoin="round"/>
<path d="M1417.27,1473.91 C1412.27,1472.72 1398.17,1469.36 1389.08,1467.20 C1355.67,1459.25 1318.39,1450.38 1314.51,1449.46" fill="none" stroke="rgb(0, 0, 0)" stroke-width="6.10" stroke-opacity="1.00" stroke-linejoin="round"/>
<path d="M1558.97,1497.75 C1559.63,1497.63 1560.30,1497.51 1560.96,1497.39 C1594.01,1491.38 1646.88,1481.77 1666.70,1478.17" fill="none" stroke="rgb(0, 0, 0)" stroke-width="6.10" stroke-opacity="1.00" stroke-linejoin="round"/>
<path d="M1411.88,1501.03 C1411.22,1500.90 1410.56,1500.76 1409.90,1500.62 C1377.00,1493.83 1324.37,1482.97 1304.64,1478.89" fill="none" stroke="rgb(0, 0, 0)" stroke-width="6.10" stroke-opacity="1.00" stroke-linejoin="round"/>
<path d="M1571.21,1552.88 C1571.36,1552.73 1604.18,1543.02 1606.19,1542.44 C1632.14,1535.30 1665.63,1524.18 1676.57,1522.07 C1676.57,1522.07 1675.57,1521.66 1675.57,1521.66" fill="none" stroke="rgb(0, 0, 0)" stroke-width="6.10" stroke-opacity="1.00" stroke-linejoin="round"/>
<path d="M1399.88,1550.88 C1399.73,1550.73 1366.92,1541.02 1364.91,1540.44 C1338.95,1533.30 1310.62,1523.85 1298.37,1520.84" fill="none" stroke="rgb(0, 0, 0)" stroke-width="6.10" stroke-opacity="1.00" stroke-linejoin="round"/>
<path d="M1577.58,1577.56 C1578.17,1577.41 1578.76,1577.26 1579.34,1577.11 C1611.01,1569.00 1663.97,1555.45 1685.26,1550.01" fill="none" stroke="rgb(0, 0, 0)" stroke-width="6.10" stroke-opacity="1.00" stroke-linejoin="round"/>
<path d="M1393.51,1578.56 C1392.92,1578.41 1392.34,1578.26 1391.75,1578.11 C1360.08,1570.00 1307.12,1556.45 1285.83,1551.01" fill="none" stroke="rgb(0, 0, 0)" stroke-width="6.10" stroke-opacity="1.00" stroke-linejoin="round"/>
</g>
</svg>
