<?xml version="1.0" encoding="UTF-8" standalone="no"?>
<!-- Created with Inkscape (http://www.inkscape.org/) -->

<svg
   version="1.1"
   id="svg1"
   width="3000"
   height="4000"
   viewBox="0 0 3000 4000"
   sodipodi:docname="button_gaiters_fill.svg"
   inkscape:version="1.4.4 (dcaf3e7, 2026-05-05)"
   xmlns:inkscape="http://www.inkscape.org/namespaces/inkscape"
   xmlns:sodipodi="http://sodipodi.sourceforge.net/DTD/sodipodi-0.dtd"
   xmlns="http://www.w3.org/2000/svg"
   xmlns:svg="http://www.w3.org/2000/svg">
  <defs
     id="defs1" />
  <sodipodi:namedview
     id="namedview1"
     pagecolor="#ffffff"
     bordercolor="#000000"
     borderopacity="0.25"
     inkscape:showpageshadow="2"
     inkscape:pageopacity="0.0"
     inkscape:pagecheckerboard="0"
     inkscape:deskcolor="#d1d1d1"
     inkscape:zoom="0.21275"
     inkscape:cx="1499.4125"
     inkscape:cy="2000"
     inkscape:window-width="1920"
     inkscape:window-height="1111"
     inkscape:window-x="2391"
     inkscape:window-y="-9"
     inkscape:window-maximized="1"
     inkscape:current-layer="g1" />
  <g
     inkscape:groupmode="layer"
     inkscape:label="Image"
     id="g1">
    <path
       style="fill:#000000"
       d="m 1257.2961,3472.3291 c -2.2506,-3.4348 -2.9108,-14.4129 -1.2239,-20.351 0.7683,-2.7043 1.4311,-3.7849 1.6733,-2.7281 0.2206,0.9625 0.7675,1.75 1.2153,1.75 0.4478,0 1.3598,4.4539 2.0266,9.8975 1.6182,13.2098 0.25,17.4469 -3.6913,11.4316 z m 449.9221,0.3099 c 0.3029,-1.5848 0.1045,-2.3384 -0.515,-1.9556 -0.6484,0.4008 -0.7898,-0.7688 -0.3964,-3.2803 0.3363,-2.1467 0.9169,-6.9406 1.2904,-10.6531 1.1249,-11.1828 5.4028,-7.8843 5.4028,4.1659 0,7.0223 -1.5201,11.7569 -4.2425,13.2139 -1.8369,0.983 -1.9848,0.8397 -1.5393,-1.4908 z m 6.7665,-52.7019 c -0.012,-1.9405 -0.2128,-2.1315 -0.9847,-0.9371 -0.5332,0.825 -0.9763,1.2579 -0.9847,0.962 -0.065,-2.2933 3.0496,-24.3602 3.5025,-24.8131 1.1223,-1.1223 3.8641,1.5271 5.0894,4.918 2.5342,7.0128 0.9998,15.0193 -3.7506,19.5705 l -2.8566,2.7368 z m -464.0398,-1.7343 c -4.1778,-5.3112 -4.7349,-13.8407 -1.3335,-20.4182 1.9472,-3.7655 4.1691,-3.5519 4.8436,0.4654 1.3227,7.878 2.4435,19.8509 1.9731,21.0768 -0.8056,2.0993 -3.3596,1.5757 -5.4832,-1.124 z m -7.0719,-57.757 c -3.247,-7.3403 -4.4298,-15.5119 -2.7519,-19.0125 0.857,-1.7882 2.1814,-2.9333 3.3924,-2.9333 1.7752,0 2.1711,1.2763 3.7222,12 0.9546,6.6 1.5312,12.5625 1.2813,13.25 -0.9781,2.6916 -3.6955,1.1007 -5.644,-3.3042 z m 476.6529,3.3781 c -0.2574,-0.7281 0.3165,-6.7239 1.2754,-13.3239 1.5443,-10.6303 1.9657,-12 3.6915,-12 4.9276,0 5.5459,9.493 1.3132,20.1606 -2.239,5.6429 -5.2386,8.1091 -6.2801,5.1633 z m -482.3026,-51.4951 c -2.2561,-0.907 -5.4303,-8.5183 -5.9454,-14.2564 -0.5904,-6.5762 1.1465,-14.0724 3.2606,-14.0724 0.8038,0 1.4615,-0.75 1.4615,-1.6667 0,-4.2325 1.0874,0.3628 3.0049,12.6983 2.4713,15.8984 2.1638,18.8834 -1.7816,17.2972 z m 490.9045,-0.2296 c -1.1559,-0.7314 -1.0964,-2.8014 0.3777,-13.1375 1.6471,-11.5497 3.216,-19.0117 3.4085,-16.2117 0.047,0.6875 0.717,1.25 1.4882,1.25 1.992,0 3.5978,5.3425 3.5978,11.9699 0,4.2149 -0.7063,7.0545 -2.75,11.0565 -2.8949,5.6688 -3.8845,6.4888 -6.1222,5.0728 z m 8.3771,-57.107 c 0.2791,-0.4518 0.068,-0.9723 -0.47,-1.1568 -0.607,-0.2083 -0.2304,-5.6309 0.9938,-14.3066 1.0842,-7.6841 1.9713,-14.1623 1.9713,-14.396 0,-0.7024 4.9965,4.9134 5.0436,5.6687 0.024,0.3842 0.4395,2.7235 0.9235,5.1985 1.6038,8.2013 -1.9133,17.9682 -6.9444,19.2838 -1.114,0.2913 -1.797,0.1601 -1.5178,-0.2916 z m -510.6868,-3.2422 c -1.8193,-2.5506 -2.3905,-4.8639 -2.6547,-10.75 -0.3017,-6.7247 -0.069,-7.8923 2.25,-11.2944 1.4226,-2.0869 2.5866,-4.2994 2.5866,-4.9167 0,-0.6172 0.2121,-0.9101 0.4713,-0.6509 1.0572,1.0572 4.35,28.38 3.4584,28.6974 -0.5182,0.1845 -0.6878,0.747 -0.3769,1.25 0.3109,0.503 -0.3307,0.9146 -1.4257,0.9146 -1.104,0 -3.0236,-1.4478 -4.309,-3.25 z m -2.5098,-49.8128 c -4.3109,-1.6318 -7.331,-9.5173 -7.4496,-19.4514 -0.067,-5.6157 2.2585,-11.1494 4.1852,-9.9586 0.5259,0.3249 0.9561,-0.1857 0.9561,-1.1348 0,-0.9492 0.2165,-1.5092 0.4811,-1.2447 0.5367,0.5368 4.701,32.0228 4.2835,32.3878 -0.1455,0.1273 -1.2509,-0.142 -2.4563,-0.5983 z M 1742.0714,3203 c -0.1905,-1.3776 3.9706,-31.3753 4.4137,-31.8184 0.2832,-0.2832 0.5149,0.01 0.5149,0.6517 0,0.6417 0.5542,1.0542 1.2316,0.9167 0.6774,-0.1375 2.0631,1.4346 3.0793,3.4934 1.6047,3.2514 1.713,4.6081 0.8237,10.3199 -1.1652,7.4844 -4.629,15.4367 -6.7238,15.4367 -0.7759,0 -1.4424,-0.5625 -1.4811,-1.25 -0.039,-0.6875 -0.457,-0.35 -0.9297,0.75 -0.4727,1.1 -0.8906,1.775 -0.9286,1.5 z m -528.7983,-59.708 c -3.4337,-5.2442 -1.7431,-24.282 2.0441,-23.0196 1.2259,0.4086 1.9141,4.069 3.1171,16.5803 0.4936,5.1334 0.3839,7.153 -0.3636,6.691 -0.5889,-0.364 -1.0707,0.04 -1.0707,0.8973 0,2.3969 -1.7607,1.8541 -3.7269,-1.149 z m 536.9404,1.8602 c -1.7961,-1.1383 0.4298,-23.8013 2.4124,-24.5621 2.1225,-0.8145 3.6722,3.3048 4.1022,10.9041 0.3057,5.4008 -0.019,7.794 -1.4158,10.4462 -1.972,3.7437 -3.1192,4.4663 -5.0988,3.2118 z M 1755,3097.063 c 0,-0.6496 -0.468,-0.8918 -1.0401,-0.5382 -0.6514,0.4026 -0.856,-0.2294 -0.5475,-1.691 0.2709,-1.2836 0.7827,-7.6118 1.1374,-14.0627 0.6151,-11.1871 0.742,-11.714 2.7472,-11.408 5.5538,0.8476 8.5237,17.382 4.1696,23.2138 -2.5707,3.4432 -6.4666,6.1459 -6.4666,4.4861 z m -547.0067,-2.7987 c -2.7362,-3.4784 -4.211,-9.5629 -3.4006,-14.0291 1.0495,-5.7845 4.071,-11.1073 6.1342,-10.8065 1.8733,0.2732 2.3899,3.1205 3.551,19.5713 0.5209,7.3792 0.4905,7.5023 -1.8844,7.6448 -1.509,0.091 -3.1584,-0.8017 -4.4002,-2.3805 z m -2.069,-50.8449 c -2.1405,-2.2784 -2.4243,-3.4991 -2.4243,-10.4266 0,-8.316 2.0036,-13.0091 5.7913,-13.565 1.4841,-0.2179 1.7098,0.7561 1.7174,7.4107 0,4.2138 0.3008,10.0945 0.6578,13.0681 0.4773,3.9748 0.3426,5.217 -0.5087,4.6909 -0.6368,-0.3935 -1.1578,-0.239 -1.1578,0.3435 0,1.7659 -1.5205,1.1983 -4.0757,-1.5216 z M 1758,3044.941 c 0,-0.5825 -0.5202,-0.7375 -1.1561,-0.3445 -0.8305,0.5133 -0.9713,-0.2094 -0.5,-2.566 0.3609,-1.8043 0.6846,-8.5117 0.7195,-14.9055 0.041,-7.456 0.3693,-10.868 0.9163,-9.5141 0.4691,1.161 1.5421,2.3753 2.3843,2.6986 3.9998,1.5348 6.5025,15.3343 3.723,20.5279 -2.1762,4.0663 -6.087,6.7028 -6.087,4.1036 z m -552.8767,-48.5114 c -5.5941,-7.1117 -2.2284,-23.5635 4.5523,-22.2521 1.6652,0.3221 1.7928,1.3551 1.4622,11.8377 -0.3342,10.5951 -0.9273,12.9155 -3.3152,12.9695 -0.3726,0.01 -1.5873,-1.1414 -2.6993,-2.5551 z m 553.2218,1.8039 c -0.7251,-0.4608 -1.2833,-4.9256 -1.5,-11.997 -0.3155,-10.296 -0.1844,-11.314 1.5263,-11.8557 1.2361,-0.3915 2.7636,0.2996 4.5,2.036 2.3305,2.3305 2.6286,3.4116 2.6286,9.5326 0,5.4123 -0.4453,7.5003 -2.0608,9.6642 -2.325,3.1141 -3.4258,3.6802 -5.0941,2.6199 z m -547.0686,-36.07 c 0.4981,-9.4599 0.3759,-10.4776 -1.4414,-12 -4.4186,-3.7017 -6.1916,-10.4028 -4.6519,-17.5823 1.2603,-5.8762 5.6078,-10.9573 8.4885,-9.9205 1.0056,0.3619 1.4947,0.2902 1.087,-0.1594 -0.4078,-0.4495 -0.3452,-1.3087 0.1389,-1.9093 0.4842,-0.6006 1.1933,-4.2779 1.5757,-8.1717 0.668,-6.8002 0.597,-7.1442 -1.7997,-8.7146 -7.4525,-4.883 -5.1837,-22.805 3.4523,-27.2708 1.6131,-0.8342 3.3225,-1.2758 3.7987,-0.9815 2.0485,1.266 1.8602,-5.0874 -0.4135,-13.9534 -0.5777,-2.2528 -0.4809,-2.7313 0.3887,-1.9211 0.6368,0.5933 1.6763,3.866 2.3098,7.2725 1.0108,5.4353 0.8867,7.3237 -1.0132,15.4212 -2.5001,10.656 -7.5584,48.7725 -9.6308,72.5729 -1.5956,18.3244 -3.1262,23.2178 -2.2891,7.318 z m 544.1588,-12.9288 c -1.2497,-0.8624 -3.7293,-23.3049 -2.833,-25.6408 0.9093,-2.3695 4.1811,-1.9306 6.8178,0.9144 5.0377,5.4358 5.8342,16.5171 1.6132,22.4449 -2.1781,3.0589 -3.6199,3.6465 -5.598,2.2815 z M 1748.4362,2899 c -1.3638,-10.0172 -2.2919,-14.6566 -3.5501,-17.7464 -1.1504,-2.8253 -1.1091,-3.4592 0.3189,-4.8871 1.5209,-1.521 1.8781,-1.502 4.8941,0.2593 1.7893,1.0451 4.3341,3.9193 5.655,6.3872 1.9721,3.6843 2.3352,5.595 2.03,10.6804 -0.4188,6.978 -2.4469,10.1723 -6.3158,9.9473 -2.0802,-0.121 -2.5054,-0.7718 -3.0321,-4.6407 z M 1213,2857.1797 c -9.4796,-4.2956 -13.994,-16.757 -9.0237,-24.9088 2.747,-4.5052 4.4737,-3.3349 6.3605,4.3107 0.8777,3.5568 3.1917,9.1899 5.1421,12.5178 1.9505,3.3279 3.2461,6.5365 2.8792,7.1302 -0.3968,0.642 -0.1992,0.7903 0.4874,0.3659 0.635,-0.3924 1.1545,-0.237 1.1545,0.3455 0,1.1616 -4.6161,1.319 -7,0.2387 z m 535,-0.2387 c 0,-0.5825 0.5195,-0.7379 1.1545,-0.3455 0.7071,0.437 0.8834,0.2748 0.4549,-0.4185 -0.3848,-0.6226 0.891,-3.6186 2.8351,-6.6577 1.9441,-3.0392 4.2616,-8.4192 5.1499,-11.9557 2.6617,-10.5963 7.512,-9.6038 8.1804,1.6739 0.3298,5.5659 0.044,6.7711 -2.567,10.8346 -3.0746,4.7845 -8.074,7.9279 -12.6089,7.9279 -1.4294,0 -2.5989,-0.4766 -2.5989,-1.059 z m -547.5382,-49.5767 c -2.486,-2.6825 -4.4462,-8.0252 -4.4562,-12.1464 -0.013,-5.2842 5.2,-12.9449 7.7403,-11.3749 0.7686,0.475 1.4445,5.3113 1.8796,13.4494 0.618,11.5603 0.5258,12.7076 -1.0208,12.7076 -0.9351,0 -2.7994,-1.1861 -4.1429,-2.6357 z m 561.8822,-7.1143 c 0.3551,-5.3625 0.648,-11.1644 0.6508,-12.893 0.012,-7.2808 7.3456,-2.9386 8.5449,5.0594 1.1484,7.658 -3.4481,17.5836 -8.1428,17.5836 -1.5261,0 -1.633,-0.99 -1.0529,-9.75 z m -561.1621,-35.6032 c -4.616,-5.9366 -3.9626,-21.2684 1.0848,-25.4542 2.26,-1.8742 6.0394,0.4946 5.2771,3.3074 -0.2981,1.1 -0.8337,6.5773 -1.1901,12.1719 -0.5523,8.6679 -0.9166,10.242 -2.4641,10.6467 -0.9988,0.2612 -2.2173,-0.041 -2.7077,-0.6718 z m 562.3987,-0.209 c -1.0319,-1.032 -1.5826,-3.3784 -1.5864,-6.7592 -0,-2.8482 -0.4412,-7.8377 -0.9735,-11.0878 -0.841,-5.1358 -0.7421,-6.0801 0.7558,-7.2161 2.3143,-1.7551 3.3188,-1.3178 5.9735,2.6003 2.6767,3.9506 3.1178,14.0122 0.852,19.435 -1.7762,4.2512 -3.0374,5.0117 -5.0214,3.0278 z"
       id="path1" />
  </g>
</svg>
