<?xml version="1.0" encoding="UTF-8" standalone="no"?>
<!-- Created with Inkscape (http://www.inkscape.org/) -->

<svg
   version="1.1"
   id="svg1"
   width="3000"
   height="4000"
   viewBox="0 0 3000 4000"
   sodipodi:docname="hat_lace2_fill.svg"
   inkscape:version="1.4.4 (dcaf3e7, 2026-05-05)"
   xmlns:inkscape="http://www.inkscape.org/namespaces/inkscape"
   xmlns:sodipodi="http://sodipodi.sourceforge.net/DTD/sodipodi-0.dtd"
   xmlns="http://www.w3.org/2000/svg"
   xmlns:svg="http://www.w3.org/2000/svg">
  <defs
     id="defs1" />
  <sodipodi:namedview
     id="namedview1"
     pagecolor="#ffffff"
     bordercolor="#000000"
     borderopacity="0.25"
     inkscape:showpageshadow="2"
     inkscape:pageopacity="0.0"
     inkscape:pagecheckerboard="0"
     inkscape:deskcolor="#d1d1d1"
     inkscape:zoom="0.21275"
     inkscape:cx="1499.4125"
     inkscape:cy="2000"
     inkscape:window-width="1920"
     inkscape:window-height="1111"
     inkscape:window-x="2391"
     inkscape:window-y="-9"
     inkscape:window-maximized="1"
     inkscape:current-layer="g1" />
  <g
     inkscape:groupmode="layer"
     inkscape:label="Image"
     id="g1">
    <path
       style="fill:#000000"
       d="m 1213.4129,468.01977 c -11.6544,-3.04693 -29.1498,-9.54508 -35.9101,-13.33773 -7.6098,-4.26926 -11.073,-15.95183 -8.6193,-29.07622 1.5806,-8.45452 4.5893,-14.33815 15.1396,-29.60582 25.3752,-36.72149 48.4119,-63.50981 78.4769,-91.25733 31.1693,-28.76675 53.3962,-45.47692 83.3828,-62.68706 C 1362.5604,232.48383 1369.0252,230 1377.2603,230 c 4.9277,0 7.1599,0.63725 13.0214,3.71736 7.6601,4.02525 15.8535,11.36334 19.9669,17.8824 1.4227,2.25487 8.3039,15.07987 15.2914,28.5 25.854,49.65492 29.3611,55.80639 33.3031,58.4151 6.7875,4.49176 14.5759,6.48514 25.3384,6.48514 16.2493,0 26.6006,-4.8327 32.129,-15 1.6449,-3.025 9.9408,-18.775 18.4353,-35 25.2542,-48.23638 25.7996,-49.11796 34.4947,-55.75941 C 1577.837,232.67454 1584.08,230 1590.8102,230 c 8.1431,0 14.8806,2.57874 31.4283,12.02902 27.7875,15.86928 48.6456,31.33781 77.8256,57.71598 33.4115,30.2034 58.5918,59.12 85.1239,97.755 12.5183,18.22868 14.7146,24.14052 14.3166,38.53673 -0.2227,8.05553 -2.0517,13.31061 -5.8109,16.69601 -4.7247,4.25479 -34.6757,15.07014 -48.9437,17.67362 -3.2188,0.58735 -3.75,0.42451 -3.75,-1.14961 0,-1.00862 -0.8528,-3.50662 -1.8951,-5.55109 -1.0424,-2.04448 -1.512,-3.95404 -1.0437,-4.24347 0.4683,-0.28943 0.6062,-1.16528 0.3065,-1.94633 -0.2997,-0.78105 -0.1794,-2.00414 0.2673,-2.71797 0.4467,-0.71384 0.8498,-1.74789 0.8957,-2.29789 0.046,-0.55 0.4436,-1.9 0.8835,-3 2.4929,-6.23283 3.9107,-8.68593 5.6468,-9.77014 1.219,-0.7613 1.9404,-2.32843 1.9427,-4.22041 0,-3.262 2.7498,-8.46512 6.6691,-12.63813 l 2.4689,-2.62869 -3.8208,0.76675 c -2.1015,0.42171 -6.2015,1.3083 -9.1112,1.9702 -2.9097,0.66189 -5.965,0.94456 -6.7896,0.62815 -0.8245,-0.31642 -2.2689,-0.18059 -3.2096,0.30184 -0.9408,0.48243 -4.1855,1.43311 -7.2105,2.11263 -3.025,0.67952 -6.0682,1.68732 -6.7626,2.23956 -1.5261,1.21361 -11.8457,-1.76086 -12.9903,-3.74428 -0.4109,-0.712 -1.5994,-1.4572 -2.6411,-1.65601 -3.8228,-0.72956 -6.0396,-5.40924 -6.2288,-13.14894 -0.2579,-10.54597 0.611,-12.66005 9.6782,-23.54748 1.0695,-1.28422 1.9446,-3.01476 1.9446,-3.84563 0,-0.83087 1.0098,-2.92876 2.2439,-4.66197 1.2342,-1.73322 2.1118,-3.72677 1.9503,-4.43013 -0.1616,-0.70336 0.6287,-2.57421 1.756,-4.15745 3.22,-4.52194 2.4327,-4.57687 -2.5637,-0.17888 -2.7631,2.43214 -6.0721,4.32195 -8.25,4.71165 -2.0001,0.35788 -4.3115,1.22387 -5.1365,1.92444 -2.0331,1.72641 -9.1818,4.6245 -9.8237,3.98254 -0.2842,-0.28415 -1.4526,0.0904 -2.5965,0.83243 -4.9437,3.20674 -22.4817,4.53637 -26.4166,2.00276 -1.2852,-0.82754 -2.6018,-1.23954 -2.9258,-0.91557 -0.7894,0.78943 -5.2374,-3.45402 -5.2374,-4.99657 0,-0.67028 -0.6712,-1.47627 -1.4917,-1.7911 -0.8204,-0.31482 -1.4961,-1.60046 -1.5016,-2.85699 -0.01,-1.25652 -0.204,-5.18897 -0.4411,-8.73877 -0.2372,-3.54981 -0.1309,-6.92481 0.2363,-7.5 0.3671,-0.5752 0.7402,-2.17081 0.8292,-3.54581 0.1977,-3.05774 2.0812,-10.4464 3.2588,-12.78379 1.3721,-2.7235 3.1101,-8.68964 3.1101,-10.67604 0,-1.35416 -1.085,-0.69837 -4.2535,2.57099 -2.3395,2.41386 -6.727,6.14324 -9.75,8.28751 -5.7924,4.10854 -7.0428,4.37257 -23.1513,4.88828 -4.2208,0.13513 -6.4365,-0.1527 -6.058,-0.78695 0.3282,-0.55 -0.083,-0.45031 -0.9134,0.22152 -2.2857,1.8489 -5.2192,-0.70605 -7.3701,-6.41902 -0.9945,-2.64138 -2.4146,-5.69013 -3.1559,-6.77501 C 1601.6065,329.44262 1601,327.63024 1601,326.5 c 0,-1.13024 -0.6349,-2.96139 -1.4108,-4.06921 -0.776,-1.10782 -1.8971,-4.64468 -2.4914,-7.85969 -0.5944,-3.21501 -1.4895,-6.34624 -1.9893,-6.95829 -0.4998,-0.61204 -1.2405,-4.69563 -1.646,-9.07463 -0.4054,-4.379 -1.3328,-9.329 -2.0607,-11 -1.2805,-2.93946 -1.3267,-2.82697 -1.4203,3.46182 -0.053,3.575 -0.9855,9.65 -2.0716,13.5 -1.0862,3.85 -2.5917,10.375 -3.3456,14.5 -0.7539,4.125 -1.8643,8.76679 -2.4675,10.3151 -0.6032,1.5483 -1.0968,4.05822 -1.0968,5.57759 0,3.42167 -4.6348,15.2101 -6.5727,16.71755 -0.785,0.61064 -1.4273,1.554 -1.4273,2.09636 0,2.59665 -7.8536,15.45634 -11,18.0116 -0.825,0.67 -2.5719,1.2325 -3.882,1.25 -2.6534,0.0354 -9.118,-3.58662 -9.118,-5.10878 0,-0.5376 -0.423,-0.71601 -0.9401,-0.39647 -1.0968,0.67787 -1.535,0.21077 -8.1044,-8.63787 -2.7255,-3.6712 -4.9555,-7.12656 -4.9555,-7.67857 0,-0.55201 -0.5625,-1.60516 -1.25,-2.34034 -0.6875,-0.73517 -2.15,-3.09777 -3.25,-5.25021 l -2,-3.91354 -0.5624,4.14281 c -0.3094,2.27854 -1.3219,4.98193 -2.25,6.00753 -0.9282,1.0256 -1.6876,2.56535 -1.6876,3.42167 0,0.85633 -0.6722,2.84589 -1.4938,4.42126 -0.8217,1.57537 -1.4967,3.84415 -1.5,5.04173 -0,1.19758 -1.1312,3.06234 -2.5062,4.14392 -1.375,1.08158 -2.5,2.45076 -2.5,3.04264 0,0.59188 -1.35,2.07424 -3,3.29414 -1.65,1.2199 -3,2.8552 -3,3.63401 0,1.75231 -11.5681,13.20787 -13.3376,13.20787 -0.7077,0 -3.1495,0.9 -5.4263,2 -2.2767,1.1 -5.5173,2 -7.2014,2 -3.0556,0 -3.6573,-0.20992 -9.7847,-3.41375 -1.7875,-0.93463 -3.25,-1.34585 -3.25,-0.91382 0,0.43203 -1.0125,-0.18848 -2.25,-1.37891 -1.2375,-1.19043 -3.8861,-3.70206 -5.8858,-5.58141 -1.9997,-1.87935 -3.9167,-4.30212 -4.26,-5.38394 -0.3434,-1.08181 -1.9698,-2.96168 -3.6143,-4.17749 -1.6444,-1.2158 -2.9899,-2.62663 -2.9899,-3.13516 0,-0.50854 -1.1723,-2.09693 -2.6052,-3.52977 -1.8227,-1.82277 -2.4654,-3.33614 -2.1398,-5.03911 0.2598,-1.35952 -0.1352,-2.93222 -0.8949,-3.56273 -0.748,-0.62084 -1.3601,-1.91301 -1.3601,-2.8715 0,-0.95848 -0.9923,-3.00423 -2.2052,-4.54611 -1.2128,-1.54188 -2.4578,-4.64006 -2.7665,-6.88486 l -0.5615,-4.08144 -2.2965,4.5 c -3.7501,7.34815 -6.1824,11.22122 -10.2873,16.38063 -2.1356,2.68434 -3.883,5.31999 -3.883,5.85699 0,0.537 -0.6681,0.71997 -1.4847,0.40661 -0.8714,-0.33438 -1.9165,0.23681 -2.5297,1.38266 -1.3115,2.45059 -6.0903,4.97311 -9.4213,4.97311 -1.8961,0 -3.6728,-1.44924 -7.049,-5.75 -2.4827,-3.1625 -4.5143,-6.27603 -4.5147,-6.91896 -8e-4,-1.45639 -3.1199,-7.42622 -4.6009,-8.80597 -1.987,-1.85101 -6.2533,-13.91298 -6.8972,-19.50007 -0.3471,-3.01125 -1.005,-5.93625 -1.462,-6.5 -0.457,-0.56375 -1.2843,-4.175 -1.8385,-8.025 -0.5543,-3.85 -1.7545,-9.00054 -2.6673,-11.44565 -0.9128,-2.44511 -1.9291,-8.26372 -2.2584,-12.93024 -0.4747,-6.72543 -0.7918,-7.98071 -1.5294,-6.05435 -1.2034,3.14247 -2.8229,12.64339 -2.7609,16.19675 0.027,1.52158 -0.6344,4.08673 -1.4689,5.70034 -0.8344,1.61361 -1.5188,4.41868 -1.5208,6.23349 -0,1.81481 -0.9021,4.77304 -2,6.57383 -1.098,1.80079 -1.9963,4.24036 -1.9963,5.42126 0,1.1809 -0.6099,2.85752 -1.3553,3.72583 -0.7454,0.86831 -2.1706,3.90329 -3.1672,6.74442 -1.0979,3.13014 -2.6327,5.5202 -3.8947,6.06539 -2.0184,0.87189 -11.1689,0.81782 -22.6925,-0.13409 -6.2875,-0.51938 -12.9252,-4.53014 -20.6021,-12.44861 -4.1824,-4.31399 -4.2157,-4.32697 -3.8516,-1.5 0.202,1.5684 1.3111,5.32663 2.4648,8.35163 1.1537,3.025 2.0978,6.48594 2.0981,7.69098 3e-4,1.20504 0.4554,2.47213 1.0114,2.81574 0.556,0.34362 1.0316,1.83267 1.0571,3.30902 0.055,3.17792 0.029,16.70384 -0.038,19.96884 -0.026,1.25653 -0.7558,2.55665 -1.6223,2.88917 -1.078,0.41365 -1.2167,0.82633 -0.4393,1.30679 0.7228,0.44674 -0.1562,1.68797 -2.4161,3.41173 -2.6302,2.0061 -3.5524,2.31869 -3.5524,1.20408 0,-1.08509 -0.6816,-0.82388 -2.4409,0.93547 -2.2488,2.2488 -3.0555,2.41235 -10.25,2.07815 -8.9982,-0.418 -14.0256,-1.3787 -16.6739,-3.18627 -1.0256,-0.70005 -2.4426,-1.05109 -3.1489,-0.78009 -0.7062,0.27101 -1.5811,0.0121 -1.9442,-0.57544 -0.3631,-0.58749 -1.4729,-1.06817 -2.4663,-1.06817 -0.9933,0 -2.8793,-0.8348 -4.1909,-1.85512 -1.3117,-1.02031 -4.0213,-2.15612 -6.0214,-2.52402 -2.1549,-0.39638 -5.5161,-2.32341 -8.25,-4.72987 -5.0214,-4.41999 -5.792,-4.40399 -2.4976,0.0519 1.1637,1.57403 1.9057,3.46831 1.6488,4.20951 -0.2568,0.7412 0.591,2.61966 1.8842,4.17436 1.2931,1.55469 2.3571,3.57969 2.3645,4.5 0.013,1.62552 1.4743,3.77281 7.2928,10.71648 1.5434,1.84189 2.7058,3.93567 2.5829,4.65284 -0.3029,1.76894 1.1638,8.89652 2.2729,11.04492 0.6026,1.16734 0.3702,2.76303 -0.7054,4.84293 -0.8822,1.70608 -1.3638,3.34219 -1.0702,3.63581 0.2936,0.29362 -0.1348,1.82681 -0.952,3.40707 -1.0015,1.93675 -2.2574,2.87322 -3.8531,2.87322 -1.302,0 -2.6016,0.61049 -2.8879,1.35664 -0.8158,2.12603 -10.1478,4.82468 -12.8901,3.72758 -5.0903,-2.03653 -6.4452,-2.42863 -9.8033,-2.837 -1.925,-0.2341 -4.0055,-0.84326 -4.6233,-1.35368 -0.6177,-0.51043 -1.8371,-0.6541 -2.7096,-0.31928 -0.8726,0.33482 -3.9671,0.0672 -6.8768,-0.59468 -2.9097,-0.6619 -7.0097,-1.54849 -9.1112,-1.9702 l -3.8208,-0.76675 2.4689,2.62869 c 3.9193,4.17301 6.665,9.37613 6.6691,12.63813 0,1.89198 0.7237,3.45911 1.9427,4.22041 1.0665,0.66602 2.6874,2.91176 3.602,4.99054 0.9146,2.07878 2.059,4.6796 2.5431,5.7796 1.5562,3.53612 2.8527,10.99035 1.9657,11.30162 -0.4728,0.16589 -1.4506,2.30339 -2.173,4.75 -0.7224,2.44661 -1.7777,4.43001 -2.3451,4.40757 -0.5674,-0.0224 -6.0209,-1.34519 -12.1188,-2.93942 z"
       id="path1" />
  </g>
</svg>
