<?xml version="1.0" encoding="UTF-8" standalone="no"?>
<!-- Created with Inkscape (http://www.inkscape.org/) -->

<svg
   version="1.1"
   id="svg1"
   width="3000"
   height="4000"
   viewBox="0 0 3000 4000"
   sodipodi:docname="P_cuffs_leaflace_fill.svg"
   inkscape:version="1.4.4 (dcaf3e7, 2026-05-05)"
   xmlns:inkscape="http://www.inkscape.org/namespaces/inkscape"
   xmlns:sodipodi="http://sodipodi.sourceforge.net/DTD/sodipodi-0.dtd"
   xmlns="http://www.w3.org/2000/svg"
   xmlns:svg="http://www.w3.org/2000/svg">
  <defs
     id="defs1" />
  <sodipodi:namedview
     id="namedview1"
     pagecolor="#ffffff"
     bordercolor="#000000"
     borderopacity="0.25"
     inkscape:showpageshadow="2"
     inkscape:pageopacity="0.0"
     inkscape:pagecheckerboard="0"
     inkscape:deskcolor="#d1d1d1"
     inkscape:zoom="0.21275"
     inkscape:cx="1499.4125"
     inkscape:cy="2000"
     inkscape:window-width="1920"
     inkscape:window-height="1111"
     inkscape:window-x="2391"
     inkscape:window-y="-9"
     inkscape:window-maximized="1"
     inkscape:current-layer="g1" />
  <g
     inkscape:groupmode="layer"
     inkscape:label="Image"
     id="g1">
    <path
       style="fill:#000000"
       d="m 997,1856.525 c 0,-1.0742 -0.74722,-1.3273 -2.75,-0.9314 -2.00603,0.3966 -3.41662,-0.084 -5.21406,-1.775 -1.35524,-1.2752 -3.33607,-2.7686 -4.40185,-3.3186 -1.06578,-0.55 -2.43195,-1.8896 -3.03593,-2.977 -0.60399,-1.0873 -1.646,-2.4373 -2.31557,-3 -0.66958,-0.5626 -1.91312,-2.7105 -2.76342,-4.773 -0.85031,-2.0625 -2.04105,-3.75 -2.64609,-3.75 -0.65349,0 -0.92133,-1.2179 -0.65977,-3 0.24217,-1.65 0.0682,-3 -0.3865,-3 -1.3917,0 -0.91853,-3.7654 0.67319,-5.3571 0.825,-0.825 1.5,-2.384 1.5,-3.4645 0,-1.0804 0.675,-2.2234 1.5,-2.54 0.825,-0.3166 1.5,-0.06 1.5,0.5699 0,0.63 2.17566,-1.1841 4.83479,-4.0314 2.65914,-2.8473 5.47589,-5.1769 6.25946,-5.1769 0.78356,0 1.99964,-0.9207 2.70239,-2.046 1.84107,-2.948 5.3357,-4.0562 7.30998,-2.318 1.38868,1.2226 1.77828,1.2076 2.87248,-0.1108 0.8436,-1.0165 3.0367,-1.5252 6.576,-1.5252 4.3906,0 5.4175,0.3384 5.9304,1.9544 0.5106,1.6088 1.0104,1.7768 2.8252,0.9499 3.1237,-1.4232 9.2625,1.2589 10.0484,4.3904 0.5001,1.9924 1.0834,2.294 3.696,1.9105 2.8289,-0.4152 3.9426,0.41 12.6372,9.3627 l 9.5349,9.8179 -5.0896,4.8551 c -4.3783,4.1767 -5.3725,4.7038 -7.1136,3.7719 -1.7109,-0.9156 -2.024,-0.781 -2.024,0.8702 0,2.8383 -1.0435,5.1137 -2.357,5.1392 -0.6286,0.012 -2.268,0.9023 -3.643,1.9778 -1.375,1.0755 -3.25,1.9655 -4.1667,1.9778 -0.9166,0.012 -1.8166,0.4334 -2,0.9359 -0.1833,0.5026 -3.7083,2.0182 -7.8333,3.368 -6.9077,2.2604 -7.6447,2.3281 -9.332,0.8571 -1.683,-1.4673 -1.9107,-1.4565 -2.7997,0.132 -1.2791,2.2858 -9.8683,2.507 -9.8683,0.2542 z m 951,-2.2433 c -4.125,-1.3498 -7.65,-2.8654 -7.8333,-3.368 -0.1834,-0.5025 -1.0834,-0.9237 -2,-0.9359 -0.9167,-0.012 -2.7917,-0.9023 -4.1667,-1.9778 -1.375,-1.0755 -3.0144,-1.9655 -3.643,-1.9778 -1.3135,-0.026 -2.357,-2.3009 -2.357,-5.1392 0,-1.6512 -0.3131,-1.7858 -2.024,-0.8702 -1.7411,0.9319 -2.7353,0.4048 -7.1136,-3.7719 l -5.0896,-4.8551 9.4135,-9.6929 c 8.0679,-8.3074 9.8744,-9.6929 12.6383,-9.6929 2.4271,0 3.4372,-0.5583 4.0829,-2.2567 1.1162,-2.9359 7.2478,-5.2657 9.9924,-3.7969 1.6099,0.8616 2.0807,0.6901 2.6003,-0.9472 0.5295,-1.6683 1.5135,-1.9992 5.9447,-1.9992 3.5393,0 5.7324,0.5087 6.576,1.5252 1.0942,1.3184 1.4838,1.3334 2.8725,0.1108 1.9743,-1.7382 5.4689,-0.63 7.31,2.318 0.7027,1.1253 1.9188,2.046 2.7024,2.046 0.7835,0 3.6003,2.3296 6.2594,5.1769 2.6591,2.8473 4.8348,4.6614 4.8348,4.0314 0,-0.63 0.675,-0.8865 1.5,-0.5699 0.825,0.3166 1.5,1.4596 1.5,2.54 0,1.0805 0.6375,2.602 1.4167,3.3811 2.1389,2.1389 1.8666,10.2185 -0.385,11.4235 -0.9909,0.5304 -2.0899,2.1126 -2.4421,3.5161 -0.3523,1.4035 -1.4165,3.3673 -2.365,4.3641 -0.9485,0.9968 -2.2188,2.6728 -2.8228,3.7245 -0.6039,1.0518 -1.9701,2.3623 -3.0359,2.9123 -1.0658,0.55 -3.0466,2.0434 -4.4018,3.3186 -1.7975,1.6914 -3.2081,2.1716 -5.2141,1.775 -1.7988,-0.3556 -2.7507,-0.1199 -2.752,0.6814 -0,1.9463 -7.0266,2.0091 -9.1562,0.082 -1.6541,-1.497 -2.0201,-1.5117 -3.5918,-0.1439 -1.5776,1.3729 -2.4889,1.2812 -9.25,-0.9313 z M 998,1782.525 c 0,-1.0742 -0.74722,-1.3273 -2.75,-0.9314 -2.00603,0.3966 -3.41662,-0.084 -5.21406,-1.775 -1.35524,-1.2752 -3.33607,-2.7686 -4.40185,-3.3186 -1.06578,-0.55 -2.43195,-1.8605 -3.03593,-2.9123 -0.60399,-1.0517 -1.87421,-2.7277 -2.82272,-3.7245 -0.94851,-0.9968 -2.01278,-2.9606 -2.36503,-4.3641 -0.35226,-1.4035 -1.4512,-2.9857 -2.44211,-3.5161 -2.25159,-1.205 -2.52387,-9.2846 -0.38497,-11.4235 0.77917,-0.7791 1.41667,-2.3006 1.41667,-3.3811 0,-1.0804 0.675,-2.2234 1.5,-2.54 0.825,-0.3166 1.5,-0.06 1.5,0.5699 0,0.63 2.17566,-1.1841 4.83479,-4.0314 2.65914,-2.8473 5.47589,-5.1769 6.25946,-5.1769 0.78356,0 1.99964,-0.9207 2.70239,-2.046 1.84107,-2.948 5.3357,-4.0562 7.30996,-2.318 1.3887,1.2226 1.7783,1.2076 2.8725,-0.1108 0.8436,-1.0165 3.0367,-1.5252 6.576,-1.5252 4.4312,0 5.4152,0.3309 5.9447,1.9992 0.5196,1.6373 0.9904,1.8088 2.6003,0.9472 2.7446,-1.4688 8.8762,0.861 9.9924,3.7969 0.6457,1.6984 1.6558,2.2567 4.0829,2.2567 2.7612,0 4.562,1.3768 12.5247,9.576 5.115,5.2667 9.2668,9.8792 9.2263,10.25 -0.041,0.3707 -2.312,2.5908 -5.0478,4.9336 -4.1435,3.5482 -5.3003,4.0851 -6.9264,3.2148 -1.6266,-0.8705 -1.9522,-0.7189 -1.9522,0.9086 0,2.8383 -1.0435,5.1137 -2.357,5.1392 -0.6286,0.012 -2.268,0.9023 -3.643,1.9778 -1.375,1.0755 -3.25,1.9655 -4.1667,1.9778 -0.9166,0.012 -1.8166,0.4334 -2,0.9359 -0.1833,0.5026 -3.7083,2.0182 -7.8333,3.368 -6.9077,2.2604 -7.6447,2.3281 -9.332,0.8571 -1.683,-1.4673 -1.9107,-1.4565 -2.7997,0.132 -1.2791,2.2858 -9.8683,2.507 -9.8683,0.2542 z m 949,-2.2433 c -4.125,-1.3498 -7.65,-2.8654 -7.8333,-3.368 -0.1834,-0.5025 -1.0834,-0.9237 -2,-0.9359 -0.9167,-0.012 -2.7917,-0.9023 -4.1667,-1.9778 -1.375,-1.0755 -3.0144,-1.9655 -3.643,-1.9778 -1.3135,-0.026 -2.357,-2.3009 -2.357,-5.1392 0,-1.6512 -0.3131,-1.7858 -2.024,-0.8702 -1.7411,0.9319 -2.7353,0.4048 -7.1136,-3.7719 l -5.0896,-4.8551 9.4135,-9.6929 c 8.0679,-8.3074 9.8744,-9.6929 12.6383,-9.6929 2.4271,0 3.4372,-0.5583 4.0829,-2.2567 1.1162,-2.9359 7.2478,-5.2657 9.9924,-3.7969 1.6099,0.8616 2.0807,0.6901 2.6003,-0.9472 0.5295,-1.6683 1.5135,-1.9992 5.9447,-1.9992 3.5393,0 5.7324,0.5087 6.576,1.5252 1.0942,1.3184 1.4838,1.3334 2.8725,0.1108 1.9743,-1.7382 5.4689,-0.63 7.31,2.318 0.7027,1.1253 1.9188,2.046 2.7024,2.046 0.7835,0 3.6003,2.3296 6.2594,5.1769 2.6591,2.8473 4.8348,4.6614 4.8348,4.0314 0,-0.63 0.675,-0.8865 1.5,-0.5699 0.825,0.3166 1.5,1.4596 1.5,2.54 0,1.0805 0.675,2.6395 1.5,3.4645 1.6749,1.6748 2.0358,5.3571 0.525,5.3571 -0.55,0 -0.7135,1.3077 -0.375,3 0.3788,1.8939 0.1902,3 -0.5116,3 -0.6113,0 -1.8073,1.6875 -2.6576,3.75 -0.8503,2.0625 -2.0938,4.2104 -2.7634,4.773 -0.6696,0.5627 -1.7116,1.9127 -2.3156,3 -0.6039,1.0874 -1.9701,2.427 -3.0359,2.977 -1.0658,0.55 -3.0466,2.0434 -4.4018,3.3186 -1.7975,1.6914 -3.2081,2.1716 -5.2141,1.775 -2.0028,-0.3959 -2.75,-0.1428 -2.75,0.9314 0,2.2528 -8.5892,2.0316 -9.8683,-0.2542 -0.889,-1.5885 -1.1167,-1.5993 -2.7997,-0.132 -1.6873,1.471 -2.4243,1.4033 -9.332,-0.8571 z"
       id="path1" />
  </g>
</svg>
