<?xml version="1.0" encoding="UTF-8" standalone="no"?>
<!DOCTYPE svg PUBLIC "-//W3C//DTD SVG 1.1//EN" "http://www.w3.org/Graphics/SVG/1.1/DTD/svg11.dtd">
<svg width="617.14" height="822.86" viewBox="0.00 0.00 3000.00 4000.00" xmlns="http://www.w3.org/2000/svg" xmlns:xlink="http://www.w3.org/1999/xlink">
<g stroke-linecap="round" id="ｶﾌｽ波">
<path d="M1839.63,1921.78 C1839.46,1921.72 1839.20,1921.50 1839.08,1921.25 C1838.95,1920.95 1839.28,1917.92 1839.71,1916.86 C1840.33,1915.43 1842.15,1913.29 1843.51,1912.51 C1844.93,1911.74 1847.83,1911.74 1848.80,1912.09 C1849.44,1912.33 1855.24,1914.65 1856.46,1914.47 C1857.55,1914.26 1860.41,1912.32 1862.21,1907.63 C1862.54,1906.92 1864.21,1902.79 1865.19,1901.23 C1866.32,1899.51 1868.85,1896.91 1870.02,1896.29 C1871.73,1895.44 1874.76,1894.90 1876.63,1895.25 C1877.76,1895.49 1880.10,1898.89 1881.15,1899.84 C1882.82,1901.31 1884.78,1901.97 1887.74,1902.26 C1889.12,1902.37 1890.86,1901.55 1891.32,1901.06 C1892.89,1899.40 1894.90,1896.19 1895.90,1893.61 C1896.49,1892.10 1899.64,1888.80 1900.58,1888.44 C1902.86,1887.63 1905.21,1887.28 1907.25,1887.47 C1909.05,1887.66 1911.74,1889.54 1912.36,1890.57 C1913.15,1891.86 1913.79,1893.57 1914.07,1893.98 C1914.37,1894.42 1919.62,1899.18 1920.07,1899.30 C1921.40,1899.58 1925.40,1899.50 1926.58,1899.14 C1927.62,1898.78 1931.19,1894.31 1931.61,1893.76 C1933.06,1891.88 1934.67,1890.66 1935.70,1890.37 C1938.69,1889.56 1942.20,1888.89 1943.38,1889.39 C1945.41,1890.32 1948.57,1893.92 1948.78,1894.32 C1949.13,1895.12 1951.50,1899.46 1952.68,1901.72 C1953.23,1902.66 1956.18,1904.03 1957.46,1904.01 C1958.86,1903.96 1963.97,1898.43 1964.28,1898.24 C1964.80,1897.95 1967.67,1896.30 1969.16,1896.29 C1971.35,1896.32 1973.73,1897.34 1974.42,1898.57 C1975.54,1900.62 1975.96,1904.03 1976.13,1904.59 C1976.80,1906.75 1979.02,1909.90 1979.95,1910.43 C1980.98,1910.96 1984.53,1911.58 1985.55,1911.06 C1985.75,1910.95 1989.85,1908.00 1991.79,1907.35 C1992.48,1907.14 1993.95,1906.91 1994.42,1907.17 C1996.69,1908.53 1997.30,1909.66 1997.42,1911.79 C1997.44,1912.62 1995.67,1915.93 1994.72,1917.65 C1993.15,1920.72 1992.88,1923.90 1993.27,1925.21 C1993.52,1926.02 1995.92,1929.59 1996.11,1932.11 C1996.26,1934.64 1995.11,1937.03 1993.66,1939.26 C1992.71,1940.80 1991.63,1945.05 1992.02,1946.10 C1992.43,1947.13 1994.79,1949.11 1995.50,1950.55 C1995.83,1951.25 1996.24,1953.55 1996.14,1954.49 C1995.97,1955.70 1993.04,1959.58 1992.42,1960.42 C1991.50,1961.67 1991.28,1964.16 1992.21,1965.56 C1994.30,1968.70 1996.59,1970.72 1997.17,1971.22 C2001.58,1975.00 2003.75,1975.49 2004.27,1975.39 C2004.31,1975.38 2004.36,1975.34 2004.42,1975.26" fill="none" stroke="rgb(0, 0, 0)" stroke-width="6.00" stroke-opacity="1.00" stroke-linejoin="round"/>
<path d="M1128.47,1921.78 C1128.64,1921.72 1128.90,1921.50 1129.01,1921.25 C1129.15,1920.95 1128.82,1917.92 1128.38,1916.86 C1127.77,1915.43 1125.94,1913.29 1124.58,1912.51 C1123.16,1911.74 1120.26,1911.74 1119.30,1912.09 C1118.66,1912.33 1112.86,1914.65 1111.64,1914.47 C1110.55,1914.26 1107.69,1912.32 1105.89,1907.63 C1105.55,1906.92 1103.89,1902.79 1102.90,1901.23 C1101.78,1899.51 1099.25,1896.91 1098.07,1896.29 C1096.36,1895.44 1093.33,1894.90 1091.46,1895.25 C1090.33,1895.49 1087.99,1898.89 1086.95,1899.84 C1085.28,1901.31 1083.31,1901.97 1080.35,1902.26 C1078.97,1902.37 1077.24,1901.55 1076.77,1901.06 C1075.20,1899.40 1073.19,1896.19 1072.20,1893.61 C1071.60,1892.10 1068.45,1888.80 1067.52,1888.44 C1065.24,1887.63 1062.88,1887.28 1060.85,1887.47 C1059.05,1887.66 1056.36,1889.54 1055.73,1890.57 C1054.94,1891.86 1054.31,1893.57 1054.03,1893.98 C1053.73,1894.42 1048.48,1899.18 1048.02,1899.30 C1046.69,1899.58 1042.69,1899.50 1041.52,1899.14 C1040.48,1898.78 1036.91,1894.31 1036.48,1893.76 C1035.04,1891.88 1033.43,1890.66 1032.39,1890.37 C1029.41,1889.56 1025.90,1888.89 1024.71,1889.39 C1022.69,1890.32 1019.53,1893.92 1019.32,1894.32 C1018.96,1895.12 1016.59,1899.46 1015.41,1901.72 C1014.87,1902.66 1011.92,1904.03 1010.63,1904.01 C1009.23,1903.96 1004.13,1898.43 1003.82,1898.24 C1003.30,1897.95 1000.42,1896.30 998.93,1896.29 C996.74,1896.32 994.37,1897.34 993.67,1898.57 C992.56,1900.62 992.13,1904.03 991.97,1904.59 C991.30,1906.75 989.08,1909.90 988.15,1910.43 C987.11,1910.96 983.56,1911.58 982.55,1911.06 C982.35,1910.95 978.25,1908.00 976.30,1907.35 C975.62,1907.14 974.15,1906.91 973.68,1907.17 C971.41,1908.53 970.79,1909.66 970.68,1911.79 C970.65,1912.62 972.42,1915.93 973.37,1917.65 C974.95,1920.72 975.21,1923.90 974.82,1925.21 C974.57,1926.02 972.17,1929.59 971.99,1932.11 C971.84,1934.64 972.99,1937.03 974.44,1939.26 C975.39,1940.80 976.46,1945.05 976.07,1946.10 C975.66,1947.13 973.30,1949.11 972.60,1950.55 C972.27,1951.25 971.86,1953.55 971.96,1954.49 C972.12,1955.70 975.06,1959.58 975.68,1960.42 C976.59,1961.67 976.82,1964.16 975.88,1965.56 C973.80,1968.70 971.51,1970.72 970.93,1971.22 C966.51,1975.00 964.35,1975.49 963.82,1975.39 C963.78,1975.38 963.74,1975.34 963.68,1975.26" fill="none" stroke="rgb(0, 0, 0)" stroke-width="6.00" stroke-opacity="1.00" stroke-linejoin="round"/>
</g>
</svg>
