<?xml version="1.0" encoding="UTF-8" standalone="no"?>
<!-- Created with Inkscape (http://www.inkscape.org/) -->

<svg
   version="1.1"
   id="svg1"
   width="3000"
   height="4000"
   viewBox="0 0 3000 4000"
   sodipodi:docname="shoes_fill.svg"
   inkscape:version="1.4.4 (dcaf3e7, 2026-05-05)"
   xmlns:inkscape="http://www.inkscape.org/namespaces/inkscape"
   xmlns:sodipodi="http://sodipodi.sourceforge.net/DTD/sodipodi-0.dtd"
   xmlns="http://www.w3.org/2000/svg"
   xmlns:svg="http://www.w3.org/2000/svg">
  <defs
     id="defs1" />
  <sodipodi:namedview
     id="namedview1"
     pagecolor="#ffffff"
     bordercolor="#000000"
     borderopacity="0.25"
     inkscape:showpageshadow="2"
     inkscape:pageopacity="0.0"
     inkscape:pagecheckerboard="0"
     inkscape:deskcolor="#d1d1d1"
     inkscape:zoom="0.21275"
     inkscape:cx="1499.4125"
     inkscape:cy="2000"
     inkscape:window-width="1920"
     inkscape:window-height="1111"
     inkscape:window-x="2391"
     inkscape:window-y="-9"
     inkscape:window-maximized="1"
     inkscape:current-layer="g1" />
  <g
     inkscape:groupmode="layer"
     inkscape:label="Image"
     id="g1">
    <path
       style="fill:#000000"
       d="m 1199,3912.3942 c -13.3221,-1.5763 -36.4584,-9.7871 -36.3333,-12.8942 0.022,-0.55 -1.2438,-1.7809 -2.8132,-2.7353 -1.5694,-0.9544 -2.8535,-2.1394 -2.8535,-2.6334 0,-0.4939 -0.9,-1.1334 -2,-1.421 -1.5287,-0.3998 -2.0316,-1.4288 -2.1343,-4.3667 -0.3456,-9.8904 0.8927,-18.4362 3.6155,-24.9529 0.7876,-1.8848 1.5054,-3.7563 1.5952,-4.1589 0.09,-0.4025 0.5579,-1.77 1.0404,-3.0389 0.6139,-1.6148 0.5458,-2.1024 -0.227,-1.6248 -2.7019,1.6699 5.311,-18.5883 15.5679,-39.3584 10.9581,-22.1902 19.7224,-37.1846 29.4319,-50.3536 5.265,-7.1411 7.1405,-10.515 7.2264,-13 0.068,-1.9787 0.3152,-2.5783 0.6013,-1.461 0.2669,1.0424 0.7772,1.4703 1.134,0.951 1.0699,-1.5572 14.7653,-10.3141 21.0147,-13.437 10.1747,-5.0844 29.5601,-8.8996 45.253,-8.9063 13.5714,-0.01 36.7296,5.4239 49.0016,11.4889 9.0916,4.4932 13.5938,7.6889 24.8481,17.6379 l 9.4688,8.3704 8.0312,-0.044 c 10.6652,-0.058 14.6773,-1.3826 25.285,-8.348 9.1377,-6.0001 11.5333,-8.4364 20.2436,-20.5869 5.7599,-8.0348 5.5371,-8.8483 3.5719,13.0412 -0.787,8.7656 -1.7184,22.6631 -2.0697,30.8834 -0.3514,8.2203 -1.1272,15.8584 -1.7241,16.9736 -1.7222,3.2181 -10.7319,12.3741 -17.2754,17.5559 -9.2125,7.2954 -11.8413,8.3647 -18.9362,7.7024 -3.3351,-0.3113 -6.9826,-0.8442 -8.1055,-1.1841 -1.6716,-0.5061 -2.451,0.2014 -4.2993,3.9023 -1.2417,2.4862 -3.5308,8.2516 -5.087,12.8121 -3.8317,11.2291 -5.1148,13.778 -6.9825,13.8707 -1.0105,0.05 -1.1396,0.2609 -0.3544,0.5784 0.9556,0.3864 0.908,1.1322 -0.2101,3.2943 -0.7949,1.5372 -1.2215,3.0186 -0.948,3.2921 0.2735,0.2735 -1.7111,3.8321 -4.4103,7.9081 -13.053,19.7107 -37.4592,33.5088 -68.6667,38.821 -11.3288,1.9284 -28.5554,3.6841 -31.8833,3.2495 -1.0358,-0.1353 -2.5238,0.2857 -3.3067,0.9354 -1.4138,1.1733 -38.48,2.163 -46.31,1.2365 z m 529.5,-0.025 c -2.2,-0.2326 -4.9,-0.8505 -6,-1.3731 -1.1,-0.5226 -2.675,-0.8556 -3.5,-0.74 -2.9234,0.4094 -20.6539,-1.437 -31.5,-3.2805 -25.2754,-4.2959 -48.6107,-15.5631 -61.5467,-29.7171 -6.7612,-7.3978 -12.9411,-17.9964 -12.5414,-21.5085 0.1722,-1.5125 -0.075,-2.75 -0.5494,-2.75 -0.4744,0 -0.8787,0.5625 -0.8986,1.25 -0.04,1.3817 -2.7832,-5.7322 -6.652,-17.25 -2.3355,-6.9526 -3.941,-10.5783 -6.1005,-13.7762 -0.694,-1.0277 -2.1443,-0.9787 -7.4497,0.2517 -6.2791,1.4563 -6.8132,1.4313 -11.3922,-0.5314 -2.6423,-1.1326 -6.8439,-3.6614 -9.3368,-5.6195 -6.5621,-5.1541 -19.0304,-18.4198 -19.5438,-20.7938 -0.2416,-1.1169 -0.9223,-11.2558 -1.5128,-22.5308 -0.5904,-11.275 -1.3287,-24.1141 -1.6406,-28.5314 -0.4376,-6.197 -0.2475,-8.2967 0.8322,-9.1928 1.1304,-0.9382 2.0657,-0.1725 4.8659,3.9837 5.8263,8.6478 9.1089,11.8585 18.3024,17.9016 10.6776,7.0186 14.6119,8.2829 25.664,8.2472 l 8.5,-0.027 6,-5.7599 c 18.7653,-18.0143 36.8983,-26.6454 64.4393,-30.6725 14.683,-2.1469 38.9019,0.5578 53.0607,5.9257 5.4944,2.083 23.8455,13.3494 25.2347,15.4924 0.461,0.7111 0.7404,0.4594 0.75,-0.6756 0.01,-0.995 0.4653,-1.5309 1.0153,-1.191 0.55,0.3399 1,2.0841 1,3.8759 0,2.4297 1.5161,5.2665 5.9646,11.1603 17.6938,23.4421 43.4544,74.8914 44.6853,89.2456 0.258,3.0086 1.0892,6.4259 1.8472,7.5942 2.9824,4.5966 4.6931,12.108 4.8197,21.1629 0.1288,9.2097 -1.0615,13.0935 -3.7169,12.1276 -0.6049,-0.2201 -2.6749,1.2879 -4.5999,3.3511 -4.5945,4.9242 -12.1279,8.6058 -23.911,11.6854 -8.4578,2.2105 -12.0073,2.5405 -30.089,2.7976 -11.275,0.1603 -22.3,0.1012 -24.5,-0.1314 z"
       id="path1" />
  </g>
</svg>
